# Blender v2.81 (sub 16) OBJ File: ''
# www.blender.org
mtllib komisch.mtl
o Plane_Plane.002
v 0.000000 0.000000 0.000000
v 1.072565 0.395680 -0.529178
v 1.192173 -0.388327 -0.199653
v 0.285257 -0.579928 0.180721
v 0.013785 0.249509 -0.121478
v -0.470118 0.006972 1.017952
v 0.433605 -0.807419 -0.762207
v 1.485428 -0.753664 -0.122174
v 1.619952 -1.807073 0.967560
v 0.661122 -2.230793 1.129004
v -0.484927 -1.594491 1.229491
vt 0.000000 0.000000
vt 0.000000 0.000000
vt 0.000000 0.000000
vt 0.000000 0.000000
vt 0.000000 0.000000
vt 0.000000 0.000000
vt 0.000000 0.000000
vt 0.000000 0.000000
vt 0.000000 0.000000
vn -0.1310 -0.0800 -0.9881
vn -0.1352 -0.1285 -0.9824
vn -0.1428 -0.8962 -0.4200
vn -0.5203 -0.7631 -0.3834
vn 0.1608 0.9259 -0.3420
vn -0.8631 -0.4479 -0.2333
vn -0.6812 0.4704 -0.5610
vn -0.5077 -0.5669 -0.6487
vn 0.5593 0.6294 0.5394
vn 0.3199 0.4918 0.8098
usemtl None
s off
f 10/1/1 11/2/1 9/3/1
f 6/4/2 9/3/2 11/2/2
f 11/2/3 7/5/3 9/3/3
f 5/6/4 8/7/4 6/4/4
f 6/4/5 8/7/5 7/5/5
f 10/1/6 6/4/6 7/5/6
f 6/4/7 2/8/7 7/5/7
f 9/3/8 6/4/8 2/8/8
f 8/7/9 6/4/9 9/3/9
f 5/6/10 10/1/10 3/9/10
l 2 5
l 3 2
l 4 3
l 1 4
