# Blender v2.81 (sub 16) OBJ File: ''
# www.blender.org
mtllib tisch.mtl
o Plane
v -1.000000 -1.150863 1.000000
v 1.000000 -1.150863 1.000000
v -1.000000 -1.150863 -1.000000
v 1.000000 -1.150863 -1.000000
v -1.000000 -1.150863 0.711036
v 1.000000 -1.150863 0.711036
v 1.000000 -1.150863 -0.732420
v -1.000000 -1.150863 -0.732420
v -0.666567 -1.150863 1.000000
v -0.666567 -1.150863 -1.000000
v -0.666567 -1.150863 0.711036
v -0.666567 -1.150863 -0.732420
v 0.587140 -1.150863 1.000000
v 0.587140 -1.150863 -1.000000
v 0.587140 -1.150863 0.711036
v 0.587140 -1.150863 -0.732420
v -1.000000 -1.249436 0.711036
v -1.000000 -1.249436 1.000000
v 0.587140 -1.249436 1.000000
v 1.000000 -1.249436 1.000000
v 1.000000 -1.249436 -0.732420
v 1.000000 -1.249436 -1.000000
v -0.666567 -1.249436 -1.000000
v -1.000000 -1.249436 -1.000000
v -1.000000 -1.249436 -0.732420
v 1.000000 -1.249436 0.711036
v -0.666567 -1.249436 0.711036
v -0.666567 -1.249436 -0.732420
v -0.666567 -1.249436 1.000000
v 0.587140 -1.249436 -1.000000
v 0.587140 -1.249436 0.711036
v 0.587140 -1.249436 -0.732420
v -1.000000 -0.011231 0.711036
v -1.000000 -0.011231 1.000000
v -0.666567 -0.011231 0.711036
v -0.666567 -0.011231 1.000000
v 0.587140 -0.058423 1.000000
v 1.000000 -0.058423 1.000000
v 1.000000 -0.058423 0.711036
v 0.587140 -0.058423 0.711036
v 1.000000 -0.032021 -0.732420
v 1.000000 -0.032021 -1.000000
v 0.587140 -0.032021 -1.000000
v 0.587140 -0.032021 -0.732420
v -0.666567 -0.041976 -1.000000
v -1.000000 -0.041976 -1.000000
v -1.000000 -0.041976 -0.732420
v -0.666567 -0.041976 -0.732420
vt 1.000000 0.866210
vt 1.000000 1.000000
vt 1.000000 1.000000
vt 1.000000 0.144482
vt 0.793570 0.144482
vt 0.793570 0.144482
vt 0.793570 0.866210
vt 0.000000 0.866210
vt 0.166717 0.144482
vt 0.000000 0.144482
vt 0.000000 0.000000
vt 0.166717 0.000000
vt 0.166717 0.000000
vt 0.000000 1.000000
vt 0.000000 0.866210
vt 0.166717 0.866210
vt 0.793570 0.000000
vt 0.166717 1.000000
vt 1.000000 0.866210
vt 0.793570 1.000000
vt 0.793570 0.866210
vt 0.793570 0.000000
vt 1.000000 0.144482
vt 0.793570 0.144482
vt 0.166717 0.144482
vt 0.000000 0.866210
vt 0.000000 0.144482
vt 0.166717 0.000000
vt 0.000000 0.000000
vt 0.166717 0.866210
vt 0.000000 1.000000
vt 0.166717 1.000000
vt 0.793570 1.000000
vt 1.000000 1.000000
vt 1.000000 0.000000
vt 1.000000 0.000000
vt 0.000000 0.144482
vt 0.000000 0.000000
vt 0.166717 0.144482
vt 0.793570 0.000000
vt 1.000000 0.144482
vt 1.000000 0.000000
vt 0.793570 1.000000
vt 1.000000 0.866210
vt 0.793570 0.866210
vt 0.000000 1.000000
vt 0.166717 0.866210
vt 0.166717 1.000000
vn -1.0000 0.0000 0.0000
vn 0.0000 0.0000 1.0000
vn 0.0000 -1.0000 0.0000
vn 0.0000 0.0000 -1.0000
vn 1.0000 0.0000 0.0000
vn 0.0000 1.0000 0.0000
usemtl None
s off
f 7/1/1 42/2/1 4/3/1
f 6/4/2 40/5/2 15/6/2
f 16/7/3 6/4/3 15/6/3
f 8/8/3 11/9/3 5/10/3
f 1/11/4 36/12/4 9/13/4
f 3/14/5 47/15/5 8/8/5
f 12/16/3 15/6/3 11/9/3
f 9/13/3 15/6/3 13/17/3
f 10/18/3 16/7/3 12/16/3
f 21/19/6 30/20/6 32/21/6
f 19/22/6 26/23/6 31/24/6
f 26/23/6 32/21/6 31/24/6
f 27/25/6 25/26/6 17/27/6
f 29/28/6 17/27/6 18/29/6
f 28/30/6 24/31/6 25/26/6
f 31/24/6 28/30/6 27/25/6
f 29/28/6 31/24/6 27/25/6
f 32/21/6 23/32/6 28/30/6
f 13/17/4 29/28/4 9/13/4
f 1/11/5 17/27/5 5/10/5
f 7/1/1 26/23/1 6/4/1
f 5/10/5 25/26/5 8/8/5
f 10/18/2 30/20/2 14/33/2
f 14/33/2 22/34/2 4/3/2
f 2/35/4 19/22/4 13/17/4
f 8/8/5 24/31/5 3/14/5
f 6/4/1 20/36/1 2/35/1
f 4/3/1 21/19/1 7/1/1
f 3/14/2 23/32/2 10/18/2
f 9/13/4 18/29/4 1/11/4
f 33/37/3 36/12/3 34/38/3
f 11/9/2 33/37/2 5/10/2
f 9/13/1 35/39/1 11/9/1
f 5/10/5 34/38/5 1/11/5
f 37/40/3 39/41/3 38/42/3
f 15/6/5 37/40/5 13/17/5
f 2/35/1 39/41/1 6/4/1
f 13/17/4 38/42/4 2/35/4
f 43/43/3 41/44/3 44/45/3
f 16/7/4 41/44/4 7/1/4
f 4/3/2 43/43/2 14/33/2
f 14/33/5 44/45/5 16/7/5
f 46/46/3 48/47/3 47/15/3
f 8/8/4 48/47/4 12/16/4
f 12/16/1 45/48/1 10/18/1
f 10/18/2 46/46/2 3/14/2
f 7/1/1 41/44/1 42/2/1
f 6/4/2 39/41/2 40/5/2
f 16/7/3 7/1/3 6/4/3
f 8/8/3 12/16/3 11/9/3
f 1/11/4 34/38/4 36/12/4
f 3/14/5 46/46/5 47/15/5
f 12/16/3 16/7/3 15/6/3
f 9/13/3 11/9/3 15/6/3
f 10/18/3 14/33/3 16/7/3
f 21/19/6 22/34/6 30/20/6
f 19/22/6 20/36/6 26/23/6
f 26/23/6 21/19/6 32/21/6
f 27/25/6 28/30/6 25/26/6
f 29/28/6 27/25/6 17/27/6
f 28/30/6 23/32/6 24/31/6
f 31/24/6 32/21/6 28/30/6
f 29/28/6 19/22/6 31/24/6
f 32/21/6 30/20/6 23/32/6
f 13/17/4 19/22/4 29/28/4
f 1/11/5 18/29/5 17/27/5
f 7/1/1 21/19/1 26/23/1
f 5/10/5 17/27/5 25/26/5
f 10/18/2 23/32/2 30/20/2
f 14/33/2 30/20/2 22/34/2
f 2/35/4 20/36/4 19/22/4
f 8/8/5 25/26/5 24/31/5
f 6/4/1 26/23/1 20/36/1
f 4/3/1 22/34/1 21/19/1
f 3/14/2 24/31/2 23/32/2
f 9/13/4 29/28/4 18/29/4
f 33/37/3 35/39/3 36/12/3
f 11/9/2 35/39/2 33/37/2
f 9/13/1 36/12/1 35/39/1
f 5/10/5 33/37/5 34/38/5
f 37/40/3 40/5/3 39/41/3
f 15/6/5 40/5/5 37/40/5
f 2/35/1 38/42/1 39/41/1
f 13/17/4 37/40/4 38/42/4
f 43/43/3 42/2/3 41/44/3
f 16/7/4 44/45/4 41/44/4
f 4/3/2 42/2/2 43/43/2
f 14/33/5 43/43/5 44/45/5
f 46/46/3 45/48/3 48/47/3
f 8/8/4 47/15/4 48/47/4
f 12/16/1 48/47/1 45/48/1
f 10/18/2 45/48/2 46/46/2
